#!OML:ASF F:\VICON\USERDATA\INSTALL\rory3\rory3.ASF
:FULLY-SPECIFIED
:DEGREES
1
root -0.75525 17.4139 -27.769 3.24665 1.11683 -1.84751
lowerback 18.3965 -1.07448 -0.223025
upperback 2.03177 -1.51705 -0.687708
thorax -8.13111 -0.732403 -0.235655
lowerneck -0.837438 0.783124 -0.828558
upperneck -11.7332 1.046 0.13657
head -3.64884 0.549329 0.158114
rclavicle 8.15017e-015 3.97569e-015
rhumerus -43.4664 18.906 -85.6555
rradius 91.9135
rwrist -0.732938
rhand -32.7532 32.9824
rfingers 7.12502
rthumb -5.97598 3.08667
lclavicle 8.15017e-015 3.97569e-015
lhumerus -38.7846 -10.1074 86.7521
lradius 111.227
lwrist 33.7297
lhand -38.6189 10.1678
lfingers 7.12502
lthumb -11.6362 39.8247
rfemur -4.2425 -3.47912 23.6911
rtibia 94.0666
rfoot 28.3132 -9.70909
rtoes 29.4813
lfemur -27.3458 -0.934437 -22.4105
ltibia 43.286
lfoot -12.9857 -3.75099
ltoes -5.23185
2
root -0.775689 17.3696 -27.3253 2.9676 1.69634 -0.0891191
lowerback 19.1712 -1.02792 -2.0139
upperback 2.58522 -1.87246 -1.27781
thorax -7.91617 -0.857089 0.244353
lowerneck -2.30963 0.677156 -0.659012
upperneck -11.7569 0.93653 0.334449
head -3.37951 0.482051 0.20137
rclavicle -3.37934e-015 -7.95139e-016
rhumerus -43.1826 16.5841 -85.0195
rradius 90.5619
rwrist 0.220355
rhand -32.9976 33.0622
rfingers 7.12502
rthumb -6.21193 3.17333
lclavicle -3.37934e-015 -7.95139e-016
lhumerus -34.6955 -11.7596 86.2372
lradius 110.688
lwrist 32.9167
lhand -39.2447 8.73264
lfingers 7.12502
lthumb -12.2396 38.3545
rfemur -7.00499 -4.80478 21.0297
rtibia 97.8126
rfoot 26.739 -9.21022
rtoes 28.6359
lfemur -25.4089 -1.69488 -24.2959
ltibia 43.2763
lfoot -14.0121 -3.62751
ltoes -4.17456
3
root -0.778945 17.3003 -26.849 3.15688 0.79235 1.39471
lowerback 18.9191 -0.561373 -3.73286
upperback 2.77812 -1.63808 -1.7755
thorax -7.53972 -0.709697 0.618202
lowerneck -2.60977 0.593639 -0.738038
upperneck -12.1248 0.844022 0.523003
head -3.4533 0.433484 0.279144
rclavicle 2.84262e-014 3.4191e-014
rhumerus -43.5894 14.6139 -84.4648
rradius 89.1267
rwrist 1.21566
rhand -33.1972 33.3251
rfingers 7.12502
rthumb -6.40461 3.44198
lclavicle 2.84262e-014 3.4191e-014
lhumerus -31.4874 -12.8176 85.6881
lradius 110.255
lwrist 32.4738
lhand -38.4553 5.63177
lfingers 7.12502
lthumb -11.4784 35.2975
rfemur -10.5397 -4.30025 18.9179
rtibia 101.249
rfoot 25.0749 -8.51026
rtoes 28.1973
lfemur -23.8576 -1.407 -25.9441
ltibia 43.5252
lfoot -15.6442 -2.92957
ltoes -7.10991
4
root -0.790836 17.2722 -26.3951 3.35461 0.408545 1.73247
lowerback 19.0576 -0.419513 -4.37416
upperback 2.7081 -1.60102 -1.86303
thorax -7.67709 -0.671883 0.880402
lowerneck -2.28511 0.677949 -0.965173
upperneck -12.6005 0.982126 0.79057
head -3.68671 0.502167 0.402298
rclavicle 1.17283e-014 1.66979e-014
rhumerus -44.4046 12.9392 -84.0022
rradius 87.8024
rwrist 2.12944
rhand -34.5441 33.4384
rfingers 7.12502
rthumb -7.70476 3.59873
lclavicle 1.17283e-014 1.66979e-014
lhumerus -28.6812 -13.2206 85.0955
lradius 110.076
lwrist 32.3068
lhand -37.0264 6.06786
lfingers 7.12502
lthumb -10.1001 35.8055
rfemur -14.1897 -4.41902 18.2725
rtibia 104.064
rfoot 23.1947 -7.83476
rtoes 27.5073
lfemur -22.4097 -1.24314 -26.2763
ltibia 43.7035
lfoot -16.9815 -2.54177
ltoes -12.0577
5
root -0.789948 17.2415 -25.9359 3.77704 0.119228 1.36641
lowerback 18.8589 -0.4627 -4.18079
upperback 2.53227 -1.60292 -1.72126
thorax -7.76166 -0.673153 0.922202
lowerneck -1.90108 0.874861 -1.12823
upperneck -12.9558 1.24612 0.809856
head -3.89072 0.639277 0.429112
rclavicle -2.38542e-015 -1.43125e-014
rhumerus -45.4144 11.5022 -83.5416
rradius 86.6656
rwrist 2.72667
rhand -35.8625 33.2761
rfingers 7.12502
rthumb -8.97714 3.48711
lclavicle -2.38542e-015 -1.43125e-014
lhumerus -25.9919 -13.3095 84.7237
lradius 110.014
lwrist 32.3528
lhand -35.8949 7.50713
lfingers 7.12502
lthumb -9.00835 37.2948
rfemur -17.9995 -4.25201 18.8022
rtibia 106.286
rfoot 20.8647 -7.42338
rtoes 24.0114
lfemur -21.1952 -1.02063 -25.8984
ltibia 43.8922
lfoot -18.2284 -2.17169
ltoes -13.3494
6
root -0.784534 17.2202 -25.4781 4.14242 0.0930294 1.23814
lowerback 18.6926 -0.572213 -4.03379
upperback 2.54746 -1.70196 -1.66408
thorax -7.65265 -0.726744 0.922159
lowerneck -2.25321 1.01836 -1.02357
upperneck -13.0359 1.40974 0.478415
head -3.84973 0.729209 0.298218
rclavicle -2.20651e-014 -1.51076e-014
rhumerus -46.0411 10.0046 -82.985
rradius 85.7635
rwrist 3.14131
rhand -35.4192 32.5919
rfingers 7.12502
rthumb -8.5493 2.78499
lclavicle -2.20651e-014 -1.51076e-014
lhumerus -23.1313 -13.5344 84.423
lradius 109.816
lwrist 32.1496
lhand -34.725 7.09029
lfingers 7.12502
lthumb -7.87937 36.9235
rfemur -21.5538 -4.17813 19.0806
rtibia 107.907
rfoot 18.886 -7.29791
rtoes 21.7815
lfemur -19.661 -0.88035 -25.8221
ltibia 43.7614
lfoot -19.1906 -1.9774
ltoes -16.3215
